<svg xmlns="http://www.w3.org/2000/svg" viewBox="0 0 141.73 141.73"><defs><style>.cls-1{fill:#f5f5f5;}</style></defs><title>about</title><g id="Layer_2" data-name="Layer 2"><g id="Capa_1" data-name="Capa 1"><path class="cls-1" d="M62.83,46.25a14.13,14.13,0,0,0,.78,1.43c.26.39.65.78.91,1.17A11.68,11.68,0,0,0,65.81,50a4.36,4.36,0,0,0,1.55.78,6.41,6.41,0,0,0,1.68.52,8,8,0,0,0,1.68.13,7.39,7.39,0,0,0,1.68-.13,4.64,4.64,0,0,0,1.43-.52H74a9.66,9.66,0,0,0,1.55-.91,8.38,8.38,0,0,0,1.17-1l.13-.13a7.12,7.12,0,0,0,.91-1.17,4.05,4.05,0,0,0,.65-1.3c0-.13,0-.13.13-.26A8.38,8.38,0,0,0,79,44.31a7.39,7.39,0,0,0,.13-1.68A7.39,7.39,0,0,0,79,40.94a12,12,0,0,0-.52-1.68A7.35,7.35,0,0,0,77,36.92l-.26-.26a11.33,11.33,0,0,0-1.3-1c-.52-.26-.91-.52-1.43-.78a7.3,7.3,0,0,0-1.55-.52,8,8,0,0,0-1.68-.13,7.39,7.39,0,0,0-1.68.13,7.3,7.3,0,0,0-1.55.52h-.13a14.13,14.13,0,0,0-1.43.78,11.33,11.33,0,0,0-1.3,1,8.38,8.38,0,0,0-1,1.17,14.13,14.13,0,0,0-.78,1.43,7.3,7.3,0,0,0-.52,1.55,8,8,0,0,0-.13,1.68,7.39,7.39,0,0,0,.13,1.68A11.76,11.76,0,0,0,62.83,46.25Z"/><path class="cls-1" d="M80.84,93.67h-3V61.93a3.34,3.34,0,0,0-3.37-3.37H60.89a3.34,3.34,0,0,0-3.37,3.37v7a3.34,3.34,0,0,0,3.37,3.37h2.72V93.8H60.89a3.34,3.34,0,0,0-3.37,3.37v7a3.34,3.34,0,0,0,3.37,3.37h20a3.34,3.34,0,0,0,3.37-3.37v-7A3.46,3.46,0,0,0,80.84,93.67Z"/><path class="cls-1" d="M70.87,137.73a66.87,66.87,0,1,1,66.87-66.87A66.94,66.94,0,0,1,70.87,137.73Zm0-132.4A65.54,65.54,0,1,0,136.4,70.87,65.61,65.61,0,0,0,70.87,5.33Z"/><path class="cls-1" d="M70.87,0a70.87,70.87,0,1,0,70.87,70.87A70.88,70.88,0,0,0,70.87,0Zm0,132.4A61.54,61.54,0,1,1,132.4,70.87,61.59,61.59,0,0,1,70.87,132.4Z"/></g></g></svg>