<svg xmlns="http://www.w3.org/2000/svg" viewBox="0 0 141.73 141.73"><defs><style>.cls-1{fill:#f5f5f5;}</style></defs><title>back_1</title><g id="Layer_2" data-name="Layer 2"><g id="Capa_1" data-name="Capa 1"><path class="cls-1" d="M0,66.71v7.9c0,5.14,3.59,9.57,7.86,9.57h95.06L72.77,120.36a10,10,0,0,0-2.26,6.47,10.28,10.28,0,0,0,2.26,6.59L77.41,139a6.87,6.87,0,0,0,11,0l51.11-61.53a10.82,10.82,0,0,0,0-13.23L88.36,2.72a6.87,6.87,0,0,0-11,0L72.77,8.32a10.37,10.37,0,0,0-2.26,6.62,10.4,10.4,0,0,0,2.26,6.63l29.81,36H7.75L8,57.48C3.7,57.48,0,61.57,0,66.71Z"/></g></g></svg>