<svg xmlns="http://www.w3.org/2000/svg" viewBox="0 0 141.73 141.73"><defs><style>.cls-1{fill:#f85a40;}</style></defs><title>close</title><g id="Layer_2" data-name="Layer 2"><g id="Capa_1" data-name="Capa 1"><path class="cls-1" d="M91.25,73.13a3.13,3.13,0,0,1,0-4.53l48.54-48.54a7,7,0,0,0,1.94-4.53A7,7,0,0,0,139.79,11l-9.06-9.06A7,7,0,0,0,126.2,0a5.88,5.88,0,0,0-4.53,1.94L73.13,50.48a3.13,3.13,0,0,1-4.53,0L20.06,1.94A7,7,0,0,0,15.53,0,7,7,0,0,0,11,1.94L1.94,11A7,7,0,0,0,0,15.53a7,7,0,0,0,1.94,4.53L50.48,68.6a3.13,3.13,0,0,1,0,4.53L1.94,121.67a6.26,6.26,0,0,0,0,9.06L11,139.79a7,7,0,0,0,4.53,1.94,7,7,0,0,0,4.53-1.94L68.6,91.25a3.13,3.13,0,0,1,4.53,0l48.54,48.54a6.26,6.26,0,0,0,9.06,0l9.06-9.06a6.26,6.26,0,0,0,0-9.06Z"/></g></g></svg>