<svg xmlns="http://www.w3.org/2000/svg" viewBox="0 0 141.73 141.73"><defs><style>.cls-1{fill:#424a60;}.cls-2{fill:#a3a3a3;}.cls-3{fill:#bfbfbf;}.cls-4{fill:#f5f5f5;}.cls-5{fill:#fcfcfc;}.cls-6{fill:#dbdbdb;}</style></defs><title>database</title><g id="Layer_2" data-name="Layer 2"><g id="Capa_1" data-name="Capa 1"><path class="cls-1" d="M141.6,21.39h0C139.44,9.46,108.61,0,70.87,0S2.29,9.46.13,21.39H0v98.95H.13c2.16,11.93,33,21.39,70.73,21.39s68.57-9.46,70.73-21.39h.13V21.39Z"/><path class="cls-2" d="M70.87,109.64C31.73,109.64,0,99.46,0,86.91v33.43H.13c2.16,11.93,33,21.39,70.73,21.39s68.57-9.46,70.73-21.39h.13V86.91C141.73,99.46,110,109.64,70.87,109.64Z"/><path class="cls-3" d="M0,85.57v1.34a7.55,7.55,0,0,1,.13-1.34Z"/><path class="cls-3" d="M141.6,85.57a7.55,7.55,0,0,1,.13,1.34V85.57Z"/><path class="cls-3" d="M70.87,77.55C31.73,77.55,0,67.37,0,54.82V88.25H.13c2.16,11.93,33,21.39,70.73,21.39s68.57-9.46,70.73-21.39h.13V54.82C141.73,67.37,110,77.55,70.87,77.55Z"/><path class="cls-4" d="M0,53.48v1.34a7.55,7.55,0,0,1,.13-1.34Z"/><path class="cls-4" d="M.13,53.48H0v1.34a7.55,7.55,0,0,1,.13-1.34Z"/><path class="cls-4" d="M141.6,53.48a7.55,7.55,0,0,1,.13,1.34V53.48Z"/><path class="cls-4" d="M141.73,53.48h-.13a7.55,7.55,0,0,1,.13,1.34V53.48Z"/><ellipse class="cls-5" cx="70.87" cy="22.73" rx="70.87" ry="22.73"/><path class="cls-6" d="M70.87,45.46C31.73,45.46,0,35.28,0,22.73V56.16H.13c2.16,11.93,33,21.39,70.73,21.39s68.57-9.46,70.73-21.39h.13V22.73C141.73,35.28,110,45.46,70.87,45.46Z"/><path class="cls-6" d="M0,21.39v1.34a7.55,7.55,0,0,1,.13-1.34Z"/><path class="cls-6" d="M141.6,21.39a7.55,7.55,0,0,1,.13,1.34V21.39Z"/></g></g></svg>