<svg xmlns="http://www.w3.org/2000/svg" viewBox="0 0 141.73 141.73"><defs><style>.cls-1{fill:#f5f5f5;}</style></defs><title>languages</title><g id="Layer_2" data-name="Layer 2"><g id="Capa_1" data-name="Capa 1"><path class="cls-1" d="M76.47,92.66h0L60.11,74.87l.19-.21A127.86,127.86,0,0,0,84.2,28.38h18.88V14.17H58V0H45.1V14.17H0v14.1H72a114.81,114.81,0,0,1-20.42,38A112.73,112.73,0,0,1,36.66,42.52H23.77A126.33,126.33,0,0,0,43,74.83L10.21,110.44l9.12,10L51.54,85l20,22Z"/><path class="cls-1" d="M112.74,56.69H99.86l-29,85H83.75L91,120.47h30.6l7.25,21.26h12.88ZM95.83,106.3,106.3,75.58l10.47,30.72Z"/></g></g></svg>