<svg xmlns="http://www.w3.org/2000/svg" viewBox="0 0 141.73 141.73"><defs><style>.cls-1{fill:#f5f5f5;}</style></defs><title>preferences</title><g id="Layer_2" data-name="Layer 2"><g id="Capa_1" data-name="Capa 1"><g id="Settings"><path class="cls-1" d="M141.29,63c-.22-2-2.55-3.49-4.56-3.49A15.65,15.65,0,0,1,126,32.27a3.94,3.94,0,0,0,.43-5.34,70.13,70.13,0,0,0-11.23-11.34,3.94,3.94,0,0,0-5.39.44,16.33,16.33,0,0,1-17.67,4A15.74,15.74,0,0,1,82.59,4.61,3.93,3.93,0,0,0,79.11.47a70.75,70.75,0,0,0-15.94,0,3.94,3.94,0,0,0-3.51,4.05A15.77,15.77,0,0,1,50,19.6a16.38,16.38,0,0,1-17.54-4,4,4,0,0,0-5.35-.45A70.39,70.39,0,0,0,15.6,26.49,3.94,3.94,0,0,0,16,31.88a15.7,15.7,0,0,1,4,17.68c-2.45,5.83-8.5,9.58-15.42,9.58A3.85,3.85,0,0,0,.47,62.62a71,71,0,0,0,0,16.12c.22,2,2.62,3.48,4.65,3.48a15.54,15.54,0,0,1,14.58,9.71,15.76,15.76,0,0,1-4,17.52,3.94,3.94,0,0,0-.43,5.34,70.38,70.38,0,0,0,11.21,11.34,3.94,3.94,0,0,0,5.39-.43,16.31,16.31,0,0,1,17.67-4,15.72,15.72,0,0,1,9.59,15.38,3.94,3.94,0,0,0,3.48,4.14,70.53,70.53,0,0,0,15.94,0,3.94,3.94,0,0,0,3.51-4.06,15.75,15.75,0,0,1,9.7-15.11,16.35,16.35,0,0,1,17.55,4,4,4,0,0,0,5.35.45,70.55,70.55,0,0,0,11.46-11.33,3.93,3.93,0,0,0-.42-5.39,15.7,15.7,0,0,1-4-17.68,15.87,15.87,0,0,1,14.5-9.61l.88,0a3.94,3.94,0,0,0,4.15-3.47A70.93,70.93,0,0,0,141.29,63ZM71,94.65A23.64,23.64,0,1,1,94.62,71,23.66,23.66,0,0,1,71,94.65Z"/></g></g></g></svg>